<svg width="252" height="170" viewBox="0 0 252 170" fill="none" xmlns="http://www.w3.org/2000/svg">
<path fill-rule="evenodd" clip-rule="evenodd" d="M112.973 67.3838H118.82L115.897 87.6171L112.973 67.3838Z" fill="#ED2E2D"/>
<path fill-rule="evenodd" clip-rule="evenodd" d="M132.869 67.2704H138.716L135.793 87.5042L132.869 67.2704Z" fill="#ED2E2D"/>
<path fill-rule="evenodd" clip-rule="evenodd" d="M135.727 64.0876C136.74 64.0843 137.776 63.9586 138.868 63.7169L158.054 18.6729L155.989 0.0529527L163.197 16.9354C163.763 17.733 163.866 18.8185 163.369 19.7353L142.856 67.2384L142.849 67.2351C142.525 67.8374 141.972 68.3074 141.271 68.4994C139.354 69.0355 137.538 69.3135 135.727 69.3168C129.197 69.3367 122.492 69.3367 115.962 69.3168C114.152 69.3135 112.335 69.0355 110.418 68.4994C109.717 68.3074 109.164 67.8374 108.84 67.2351L108.833 67.2384L88.32 19.7353C87.8236 18.8185 87.9229 17.733 88.4921 16.9354L95.3232 0L93.6353 18.6729L112.821 63.7169C113.913 63.9586 114.949 64.0843 115.962 64.0876C118.911 64.0943 132.778 64.0943 135.727 64.0876Z" fill="#ED2E2D"/>
<path fill-rule="evenodd" clip-rule="evenodd" d="M106.837 51.6985L112.055 39.2595L94.9812 24.8387L106.837 51.6985Z" fill="#ED2E2D"/>
<path fill-rule="evenodd" clip-rule="evenodd" d="M144.031 51.6985L138.813 39.2595L155.887 24.8387L144.031 51.6985Z" fill="#ED2E2D"/>
<path fill-rule="evenodd" clip-rule="evenodd" d="M109.072 44.1797L112.14 49.4639L112.398 27.9229L109.072 44.1797Z" fill="#ED2E2D"/>
<path fill-rule="evenodd" clip-rule="evenodd" d="M141.887 44.1797L138.819 49.4639L138.561 27.9229L141.887 44.1797Z" fill="#ED2E2D"/>
<path fill-rule="evenodd" clip-rule="evenodd" d="M135.684 61.0206L133.797 58.9835L129.641 60.9547L135.684 61.0206Z" fill="#ED2E2D"/>
<path fill-rule="evenodd" clip-rule="evenodd" d="M116.005 61.0206L117.891 58.9835L122.048 60.9547L116.005 61.0206Z" fill="#ED2E2D"/>
<path d="M25.4525 161.906H29.712C30.8141 161.906 31.6713 162.105 32.2869 162.505C32.9025 162.902 33.207 163.452 33.207 164.147C33.207 164.848 32.8991 165.398 32.2769 165.798C31.658 166.202 30.8042 166.404 29.712 166.404H26.6837V169.929H25.4525V161.906ZM29.6094 165.636C30.3971 165.636 30.9928 165.507 31.3933 165.252C31.7937 164.997 31.9956 164.63 31.9956 164.147C31.9956 163.667 31.7937 163.303 31.3933 163.051C30.9928 162.8 30.3971 162.674 29.6094 162.674H26.6837V165.636H29.6094Z" fill="#414042"/>
<path d="M44.6947 161.906V169.929H43.4635V166.245H37.0594V169.929H35.8414V161.906H37.0594V165.467H43.4635V161.906H44.6947Z" fill="#414042"/>
<path d="M54.9513 167.867H49.3712L48.183 169.929H46.9088L51.6052 161.906H52.6875L57.3838 169.929H56.1229L54.9513 167.867ZM54.5177 167.102L52.1612 162.978L49.8048 167.102H54.5177Z" fill="#414042"/>
<path d="M67.9845 169.929H66.6805L65.36 167.258C65.1978 166.927 64.9761 166.708 64.6915 166.592C64.4068 166.48 64.0064 166.424 63.4834 166.424H60.8126V169.929H59.5979V161.906H63.8442C64.9959 161.906 65.8763 162.098 66.4919 162.482C67.1075 162.866 67.4153 163.418 67.4153 164.137C67.4153 164.663 67.2332 165.103 66.8692 165.464C66.5018 165.818 65.9723 166.07 65.2839 166.222C65.595 166.261 65.8597 166.361 66.0815 166.52C66.2999 166.682 66.4853 166.913 66.6375 167.215L67.9845 169.929ZM63.7383 165.659C65.3799 165.659 66.1973 165.156 66.1973 164.147C66.1973 163.653 65.9988 163.283 65.6016 163.038C65.1978 162.796 64.5789 162.674 63.7383 162.674H60.8126V165.659H63.7383Z" fill="#414042"/>
<path d="M80.7167 161.906V169.929H79.5749V163.968L76.1097 169.929H75.2393L71.7443 164.011L71.7575 169.929H70.6157V161.906H71.6384L75.6894 168.823L79.6973 161.906H80.7167Z" fill="#414042"/>
<path d="M90.9699 167.867H85.3899L84.205 169.929H82.9308L87.6239 161.906H88.7061L93.4025 169.929H92.1415L90.9699 167.867ZM90.5363 167.102L88.1832 162.978L85.8234 167.102H90.5363Z" fill="#414042"/>
<path fill-rule="evenodd" clip-rule="evenodd" d="M222.841 152.162L234.185 123.911L216.549 143.522L215.148 123.911L198.761 164.673L191.178 151.997L207.553 111.219H226.087L226.526 117.366L232.054 111.219H251.963L230.311 164.651L222.841 152.162Z" fill="#414042"/>
<path fill-rule="evenodd" clip-rule="evenodd" d="M202.471 111.219L184.642 155.641H140.224L158.059 111.219H202.471ZM184.692 123.911H165.655L158 142.948H177.037L184.692 123.911Z" fill="#414042"/>
<path fill-rule="evenodd" clip-rule="evenodd" d="M113.307 132.888L100.661 164.862L92.9536 151.973L112.925 102.242L131.913 133.971L141.048 111.219H153.729L132.285 164.617L113.307 132.888Z" fill="#414042"/>
<path fill-rule="evenodd" clip-rule="evenodd" d="M48.7413 139.776L53.8593 127.084H98.2807L93.1518 139.776H48.7413Z" fill="#414042"/>
<path fill-rule="evenodd" clip-rule="evenodd" d="M42.3819 155.64L47.4784 142.949H91.8886L86.8026 155.64H42.3819Z" fill="#414042"/>
<path fill-rule="evenodd" clip-rule="evenodd" d="M55.1234 123.911L60.2196 111.219H104.63L99.5438 123.911H55.1234Z" fill="#414042"/>
<path fill-rule="evenodd" clip-rule="evenodd" d="M11.4774 111.219H24.1696L14.5328 134.513L20.2296 144.032L33.5706 134.513L43.2074 111.219H55.8876L44.4102 139.776L13.2913 161.987L0 139.776L11.4774 111.219Z" fill="#414042"/>
</svg>
